<svg width="47" height="48" viewBox="0 0 47 48" fill="none" xmlns="http://www.w3.org/2000/svg">
<path d="M41.5001 0.950209H5.50021C4.82889 0.948631 4.16383 1.0793 3.54301 1.33474C2.92219 1.59019 2.35776 1.96541 1.88196 2.43899C1.40614 2.91257 1.02828 3.47522 0.76992 4.09484C0.511563 4.71446 0.377778 5.37889 0.376203 6.05021V42.0502C0.369835 42.7259 0.497847 43.3963 0.752797 44.0222C1.00776 44.648 1.38456 45.2171 1.86132 45.6961C2.33808 46.175 2.90529 46.5546 3.52998 46.8124C4.15467 47.0702 4.82439 47.2014 5.50021 47.1982H41.5001C42.176 47.2014 42.8458 47.0702 43.4704 46.8124C44.0951 46.5546 44.6623 46.175 45.1391 45.6961C45.6158 45.2171 45.9926 44.648 46.2477 44.0222C46.5025 43.3963 46.6306 42.7259 46.6241 42.0502V6.05021C46.6227 5.37889 46.4888 4.71446 46.2305 4.09484C45.9721 3.47522 45.5942 2.91257 45.1185 2.43899C44.6427 1.96541 44.0782 1.59019 43.4573 1.33474C42.8365 1.0793 42.1715 0.948631 41.5001 0.950209ZM43.6241 42.0502C43.6306 42.332 43.5803 42.6122 43.4761 42.8741C43.372 43.1362 43.2161 43.3744 43.018 43.5749C42.8198 43.7753 42.5833 43.9339 42.3224 44.041C42.0617 44.1479 41.782 44.2015 41.5001 44.1982H5.50021C5.21833 44.2015 4.93867 44.1479 4.67791 44.041C4.41715 43.9339 4.18062 43.7753 3.98241 43.5749C3.7842 43.3744 3.62838 43.1362 3.52423 42.8741C3.42009 42.6122 3.36975 42.332 3.37621 42.0502V6.05021C3.37618 5.7724 3.43129 5.49736 3.53832 5.24099C3.64536 4.98463 3.80218 4.75205 3.99975 4.55674C4.1973 4.36141 4.43164 4.20724 4.68919 4.10312C4.94676 3.99901 5.22241 3.94703 5.50021 3.95021H41.5001C41.778 3.94703 42.0536 3.99901 42.3112 4.10312C42.5687 4.20724 42.8031 4.36141 43.0006 4.55674C43.1982 4.75205 43.355 4.98463 43.4622 5.24099C43.5691 5.49736 43.6241 5.7724 43.6241 6.05021V42.0502Z" fill="#1D1C1D"/>
<path d="M34.384 16.6461H30.7L31.216 13.166C31.2444 12.9706 31.2339 12.7715 31.1854 12.5801C31.1368 12.3887 31.051 12.2088 30.9328 12.0505C30.6943 11.731 30.3387 11.5193 29.944 11.462C29.5494 11.4047 29.1481 11.5065 28.8285 11.7451C28.509 11.9836 28.2972 12.3393 28.24 12.734L27.664 16.6461H21.976L22.48 13.166C22.5207 12.966 22.5201 12.7599 22.4784 12.5602C22.4365 12.3604 22.3545 12.1713 22.2372 12.0044C22.1199 11.8375 21.9697 11.6963 21.7959 11.5894C21.622 11.4825 21.4282 11.4122 21.2263 11.3827C21.0244 11.3533 20.8186 11.3654 20.6217 11.4182C20.4246 11.4711 20.2404 11.5636 20.0802 11.6901C19.9201 11.8165 19.7875 11.9743 19.6905 12.1538C19.5934 12.3333 19.534 12.5307 19.516 12.734L18.94 16.6461H14.0439C13.6461 16.6461 13.2646 16.804 12.9833 17.0853C12.702 17.3667 12.5439 17.7481 12.5439 18.1461C12.5439 18.5439 12.702 18.9253 12.9833 19.2067C13.2646 19.488 13.6461 19.6461 14.0439 19.6461H18.508L17.428 27.0381H12.6279C12.2301 27.0381 11.8486 27.196 11.5673 27.4773C11.286 27.7587 11.1279 28.1401 11.1279 28.5381C11.1279 28.9359 11.286 29.3173 11.5673 29.5987C11.8486 29.88 12.2301 30.0381 12.6279 30.0381H16.996L16.3 34.9821C16.2402 35.3662 16.3318 35.7586 16.5556 36.0765C16.7796 36.3943 17.1181 36.6129 17.5 36.6861H17.728C18.087 36.684 18.4333 36.5533 18.7041 36.3177C18.975 36.0822 19.1523 35.7573 19.204 35.4021L20.02 30.0501H25.684L24.964 34.9941C24.9055 35.3869 25.0053 35.7871 25.2415 36.1066C25.4778 36.4261 25.831 36.6388 26.224 36.6981H26.452C26.811 36.696 27.1573 36.5653 27.4281 36.3297C27.699 36.0942 27.8763 35.7693 27.928 35.4141L28.72 30.0501H32.956C33.3538 30.0501 33.7353 29.892 34.0167 29.6107C34.2979 29.3293 34.456 28.9479 34.456 28.5501C34.456 28.1521 34.2979 27.7707 34.0167 27.4893C33.7353 27.208 33.3538 27.0501 32.956 27.0501H29.152L30.244 19.6581H34.384C34.7818 19.6581 35.1633 19.5 35.4447 19.2187C35.7259 18.9373 35.884 18.5559 35.884 18.1581C35.884 17.7601 35.7259 17.3787 35.4447 17.0973C35.1633 16.816 34.7818 16.6581 34.384 16.6581V16.6461ZM26.128 27.0381H20.452L21.532 19.6461H27.208L26.128 27.0381Z" fill="#1D1C1D"/>
</svg>
