<svg width="47" height="32" viewBox="0 0 47 32" fill="none" xmlns="http://www.w3.org/2000/svg">
<path d="M44.8842 1.84996C44.3686 1.55644 43.7854 1.40209 43.1922 1.40209C42.5989 1.40209 42.0157 1.55644 41.5002 1.84996L34.3002 6.04996V5.13796C34.3002 3.78537 33.7629 2.48815 32.8065 1.53172C31.8499 0.575294 30.5527 0.0379639 29.2002 0.0379639H5.50015C4.14754 0.0379639 2.85034 0.575294 1.89389 1.53172C0.937466 2.48815 0.400146 3.78537 0.400146 5.13796V26.3899C0.400146 27.0597 0.532061 27.723 0.78836 28.3417C1.04465 28.9605 1.42033 29.5227 1.89389 29.9962C2.36747 30.4698 2.9297 30.8455 3.54845 31.1017C4.16722 31.3581 4.8304 31.4899 5.50015 31.4899H29.1762C29.8479 31.4932 30.5137 31.3636 31.1352 31.1086C31.7568 30.8538 32.3218 30.4786 32.7979 30.0048C33.274 29.5309 33.6519 28.9675 33.9097 28.3473C34.1674 27.7269 34.3002 27.0618 34.3002 26.3899V25.4779L41.5002 29.6299C42.0219 29.931 42.6139 30.0883 43.2162 30.0859C43.8148 30.0897 44.4034 29.9322 44.9202 29.6299C45.444 29.3332 45.8791 28.9021 46.1808 28.3812C46.4824 27.8601 46.6396 27.268 46.6362 26.6659V4.86196C46.6447 4.24822 46.4863 3.64371 46.1776 3.11314C45.8691 2.58256 45.4219 2.14593 44.8842 1.84996ZM31.2762 7.7299V26.3899C31.2762 26.9469 31.0549 27.481 30.661 27.8749C30.2673 28.2687 29.7331 28.4899 29.1762 28.4899H5.50015C4.94318 28.4899 4.40905 28.2687 4.01522 27.8749C3.6214 27.481 3.40015 26.9469 3.40015 26.3899V5.13796C3.40331 4.5831 3.62596 4.05204 4.01945 3.66079C4.41293 3.26956 4.94527 3.04996 5.50015 3.04996H29.1762C29.7331 3.04996 30.2673 3.27121 30.661 3.66504C31.0549 4.05886 31.2762 4.59301 31.2762 5.14996V7.7299ZM43.6002 26.6659C43.6015 26.7402 43.582 26.8134 43.5438 26.877C43.5057 26.9406 43.4503 26.9923 43.3842 27.0259C43.3224 27.0682 43.2492 27.0909 43.1742 27.0909C43.0992 27.0909 43.026 27.0682 42.9642 27.0259L34.3002 22.0099V9.5179L42.9882 4.50196C43.05 4.45966 43.1232 4.43703 43.1982 4.43703C43.2732 4.43703 43.3464 4.45966 43.4082 4.50196C43.4743 4.5357 43.5297 4.58734 43.5678 4.65099C43.606 4.71465 43.6255 4.78774 43.6242 4.86196L43.6002 26.6659Z" fill="#1D1C1D"/>
<path d="M25.1082 15.302C24.742 15.1745 24.3404 15.1963 23.9902 15.3624C23.6398 15.5286 23.3691 15.8259 23.2361 16.1901C22.7956 17.3883 21.9996 18.4231 20.9545 19.1563C19.9096 19.8895 18.6655 20.2858 17.389 20.2924C16.1125 20.2989 14.8644 19.9153 13.8119 19.1928C12.7595 18.4704 11.9529 17.4436 11.5001 16.25C11.3474 15.9131 11.0738 15.6458 10.7334 15.5011C10.393 15.3563 10.0106 15.3448 9.66205 15.4685C9.31347 15.5923 9.02404 15.8424 8.85109 16.1694C8.67814 16.4964 8.63427 16.8763 8.72814 17.234C9.36816 19.0192 10.544 20.5632 12.0948 21.6546C13.6456 22.7461 15.4957 23.3319 17.3921 23.3319C19.2886 23.3319 21.1387 22.7461 22.6895 21.6546C24.2402 20.5632 25.4161 19.0192 26.0562 17.234C26.1292 17.0455 26.1623 16.8439 26.1535 16.642C26.1448 16.44 26.0942 16.2419 26.0053 16.0604C25.9162 15.8789 25.7905 15.7179 25.6362 15.5874C25.4817 15.4569 25.302 15.3596 25.1082 15.302Z" fill="#1D1C1D"/>
<path d="M14.344 14.438C14.6924 14.4403 15.0337 14.3395 15.3247 14.1481C15.6158 13.9568 15.8438 13.6835 15.9799 13.3628C16.1159 13.0421 16.1539 12.6883 16.0891 12.346C16.0243 12.0037 15.8596 11.6882 15.6158 11.4394C15.3719 11.1905 15.0599 11.0195 14.7191 10.9478C14.3782 10.8761 14.0237 10.9069 13.7003 11.0363C13.3769 11.1658 13.099 11.3882 12.9018 11.6753C12.7046 11.9626 12.5968 12.3016 12.592 12.65C12.5873 12.8831 12.629 13.1147 12.7149 13.3315C12.8008 13.5482 12.9291 13.7456 13.0923 13.9121C13.2555 14.0786 13.4502 14.2109 13.6652 14.3012C13.8801 14.3915 14.1109 14.438 14.344 14.438Z" fill="#1D1C1D"/>
<path d="M20.0558 14.438C20.4041 14.4403 20.7454 14.3395 21.0365 14.1481C21.3277 13.9568 21.5555 13.6835 21.6916 13.3628C21.8276 13.0421 21.8657 12.6883 21.8009 12.346C21.7361 12.0037 21.5714 11.6882 21.3277 11.4394C21.0838 11.1905 20.7718 11.0195 20.4308 10.9478C20.09 10.8761 19.7354 10.9069 19.412 11.0363C19.0886 11.1658 18.8108 11.3882 18.6136 11.6753C18.4163 11.9626 18.3086 12.3016 18.3038 12.65C18.299 12.8831 18.3407 13.1147 18.4267 13.3315C18.5126 13.5482 18.6409 13.7456 18.8041 13.9121C18.9673 14.0786 19.162 14.2109 19.3769 14.3012C19.5919 14.3915 19.8227 14.438 20.0558 14.438Z" fill="#1D1C1D"/>
</svg>
