<svg width="39" height="48" viewBox="0 0 39 48" fill="none" xmlns="http://www.w3.org/2000/svg">
<path d="M19.332 37.3941C19.047 37.1377 18.6745 37.0003 18.2914 37.0099C17.9082 37.0195 17.5432 37.1755 17.2714 37.4458C16.9996 37.7161 16.8415 38.0802 16.8298 38.4633C16.818 38.8464 16.9533 39.2196 17.208 39.5061L18.252 40.5501H5.1C4.54401 40.5469 4.01171 40.3246 3.61856 39.9315C3.22541 39.5383 3.00315 39.006 3 38.4501V9.74601C3.00315 9.19002 3.22541 8.6577 3.61856 8.26457C4.01171 7.87142 4.54401 7.64916 5.1 7.64601H11.1C11.4978 7.64601 11.8794 7.48797 12.1606 7.20666C12.4419 6.92537 12.6 6.54383 12.6 6.146C12.6 5.74818 12.4419 5.36664 12.1606 5.08535C11.8794 4.80404 11.4978 4.646 11.1 4.646H5.1C3.74836 4.64918 2.45301 5.18751 1.49725 6.14327C0.5415 7.09901 0.003165 8.39438 0 9.74601V38.4501C0.003165 39.8017 0.5415 41.097 1.49725 42.0528C2.45301 43.0086 3.74836 43.5469 5.1 43.5501H18.3L17.256 44.5941C17.0487 44.803 16.9075 45.0684 16.8501 45.357C16.7925 45.6457 16.8213 45.9448 16.9324 46.2174C17.0437 46.4898 17.2327 46.7236 17.4759 46.8894C17.719 47.0553 18.0057 47.1459 18.3 47.1501C18.4969 47.1514 18.6921 47.1129 18.8736 47.0365C19.0552 46.9602 19.2193 46.8478 19.356 46.7061L22.956 43.1061C23.0956 42.9667 23.2065 42.8011 23.2821 42.6189C23.3577 42.4366 23.3967 42.2413 23.3967 42.0441C23.3967 41.8467 23.3577 41.6514 23.2821 41.4691C23.2065 41.2869 23.0956 41.1214 22.956 40.9821L19.332 37.3941Z" fill="#1D1C1D"/>
<path d="M17.7841 14.0779C17.4099 14.029 17.0311 14.1265 16.7271 14.3501C16.423 14.5736 16.2169 14.906 16.1521 15.2779L15.7561 18.0499H12.2281C11.8462 18.0499 11.4799 18.2015 11.2099 18.4717C10.9398 18.7417 10.7881 19.108 10.7881 19.4899C10.7881 19.8718 10.9398 20.2381 11.2099 20.5081C11.4799 20.7781 11.8462 20.9299 12.2281 20.9299H15.3361L14.5801 26.0419H11.1001C10.9008 26.0236 10.6998 26.0471 10.51 26.1109C10.3203 26.1746 10.146 26.2772 9.99811 26.4122C9.85026 26.5471 9.73215 26.7115 9.65134 26.8946C9.57054 27.0778 9.52881 27.2756 9.52881 27.4759C9.52881 27.676 9.57054 27.874 9.65134 28.0571C9.73215 28.2403 9.85026 28.4045 9.99811 28.5395C10.146 28.6744 10.3203 28.7771 10.51 28.8409C10.6998 28.9046 10.9008 28.9282 11.1001 28.9099H14.1241L13.6561 32.4499C13.6041 32.8246 13.7004 33.2048 13.9245 33.5096C14.1486 33.8144 14.4829 34.0198 14.8561 34.0819H15.0721C15.4117 34.081 15.7401 33.9601 15.9993 33.7405C16.2583 33.5209 16.4314 33.2167 16.4881 32.8819L17.1001 28.9099H20.8921L20.3401 32.4499C20.2881 32.8246 20.3844 33.2048 20.6085 33.5096C20.8326 33.8144 21.1669 34.0198 21.5401 34.0819H21.7561C22.0957 34.081 22.4241 33.9601 22.6833 33.7405C22.9423 33.5209 23.1154 33.2167 23.1721 32.8819L23.7481 28.9819H26.7601C27.1177 28.9492 27.4503 28.7839 27.6924 28.5185C27.9346 28.2532 28.0687 27.907 28.0687 27.5479C28.0687 27.1886 27.9346 26.8424 27.6924 26.5772C27.4503 26.3119 27.1177 26.1466 26.7601 26.1139H24.1801L24.9241 21.0019H27.9001C28.2916 21.0019 28.6669 20.8463 28.9438 20.5696C29.2206 20.2927 29.3761 19.9174 29.3761 19.5259C29.3761 19.1344 29.2206 18.7589 28.9438 18.4822C28.6669 18.2054 28.2916 18.0499 27.9001 18.0499H25.3801L25.7281 15.7099C25.7802 15.3352 25.6839 14.9549 25.4598 14.6501C25.2355 14.3452 24.9013 14.14 24.5281 14.0779C24.1548 14.0261 23.776 14.1227 23.473 14.3471C23.1702 14.5715 22.9674 14.9056 22.9081 15.2779L22.4401 18.0499H18.6601L18.9961 15.7099C19.051 15.3328 18.9544 14.9494 18.7272 14.6435C18.5001 14.3376 18.1609 14.1342 17.7841 14.0779ZM22.0201 20.9299L21.2761 26.0419H17.4841L18.3001 20.9299H22.0201Z" fill="#1D1C1D"/>
<path d="M33.8997 4.64605H20.6157L21.7557 3.44605C22.0104 3.15956 22.1457 2.78644 22.134 2.40331C22.1222 2.02016 21.9642 1.65608 21.6923 1.3858C21.4205 1.11552 21.0555 0.95956 20.6724 0.949936C20.2892 0.940312 19.9169 1.07776 19.6317 1.33405L16.0317 4.93405C15.8921 5.07338 15.7812 5.23891 15.7056 5.42114C15.63 5.60338 15.591 5.79875 15.591 5.99605C15.591 6.19336 15.63 6.38872 15.7056 6.57095C15.7812 6.75319 15.8921 6.91871 16.0317 7.05805L19.6317 10.658C19.7715 10.7991 19.9379 10.9109 20.1213 10.9871C20.3046 11.0633 20.5013 11.1024 20.6997 11.102C20.8967 11.1035 21.0918 11.0649 21.2735 10.9886C21.455 10.9123 21.6191 10.7998 21.7557 10.658C21.8951 10.5197 22.0056 10.3552 22.0811 10.174C22.1565 9.99275 22.1954 9.79837 22.1954 9.60205C22.1954 9.40573 22.1565 9.21136 22.0811 9.03011C22.0056 8.84888 21.8951 8.68436 21.7557 8.54605L20.8077 7.59805H33.8997C34.4558 7.6012 34.9881 7.82347 35.3813 8.2166C35.7744 8.60975 35.9966 9.14207 35.9997 9.69805V38.45C35.9966 39.0061 35.7744 39.5383 35.3813 39.9314C34.9881 40.3246 34.4558 40.5469 33.8997 40.55H27.8997C27.5019 40.55 27.1205 40.7081 26.8391 40.9894C26.5578 41.2706 26.3997 41.6522 26.3997 42.05C26.3997 42.4478 26.5578 42.8294 26.8391 43.1107C27.1205 43.3919 27.5019 43.55 27.8997 43.55H33.8997C35.2514 43.5469 36.5468 43.0085 37.5026 42.0527C38.4582 41.0971 38.9966 39.8017 38.9997 38.45V9.74605C38.9966 8.39441 38.4582 7.09906 37.5026 6.1433C36.5468 5.18756 35.2514 4.64921 33.8997 4.64605Z" fill="#1D1C1D"/>
</svg>
