<svg width="39" height="38" viewBox="0 0 39 38" fill="none" xmlns="http://www.w3.org/2000/svg">
<path fill-rule="evenodd" clip-rule="evenodd" d="M8.359 7.85105C5.39262 10.6925 3.60083 14.3722 3.60083 17.8501V21.8082C5.25757 20.282 7.47 19.35 9.9001 19.35H10.2501C12.5421 19.35 14.4001 21.208 14.4001 23.5V33.8C14.4001 36.092 12.5421 37.95 10.2501 37.95H9.9001C4.76385 37.95 0.600098 33.7862 0.600098 28.65C0.600098 28.6106 0.600338 28.5713 0.600828 28.532V17.8501C0.600828 13.3751 2.86985 8.95485 6.2838 5.68455C9.7085 2.40413 14.4171 0.150146 19.5008 0.150146C24.5845 0.150146 29.2932 2.40413 32.7178 5.68455C36.1318 8.95485 38.4008 13.3751 38.4008 17.8501V28.6066L38.4009 28.65C38.4009 33.7862 34.2372 37.95 29.1009 37.95H28.7509C26.459 37.95 24.6009 36.092 24.6009 33.8V23.5C24.6009 21.208 26.459 19.35 28.7509 19.35H29.1009C31.5313 19.35 33.744 20.2823 35.4008 21.8088V17.8501C35.4008 14.3722 33.609 10.6925 30.6426 7.85105C27.6869 5.01972 23.6955 3.15015 19.5008 3.15015C15.3062 3.15015 11.3148 5.01972 8.359 7.85105ZM3.6001 28.6501C3.60016 32.1294 6.4207 34.95 9.9001 34.95H10.2501C10.8852 34.95 11.4001 34.4351 11.4001 33.8V23.5C11.4001 22.8649 10.8852 22.35 10.2501 22.35H9.9001C6.4531 22.35 3.65273 25.1183 3.60083 28.5529L3.6001 28.6501ZM35.4008 28.6501V28.6143C35.3816 25.1513 32.5684 22.35 29.1009 22.35H28.7509C28.1158 22.35 27.6009 22.8649 27.6009 23.5V33.8C27.6009 34.4351 28.1158 34.95 28.7509 34.95H29.1009C32.5803 34.95 35.4008 32.1294 35.4008 28.6501Z" fill="#1D1C1D"/>
</svg>

