<svg width="48" height="41" viewBox="0 0 48 41" fill="none" xmlns="http://www.w3.org/2000/svg">
<path d="M42.0001 8.29591H29.9161V5.10391C29.9161 3.7513 29.3788 2.4541 28.4224 1.49765C27.4659 0.541221 26.1687 0.00390625 24.8162 0.00390625H6.00015C4.64851 0.00707125 3.35314 0.545406 2.3974 1.50116C1.44165 2.4569 0.903314 3.75227 0.900146 5.10391V21.0278C0.900146 22.3805 1.43747 23.6777 2.39389 24.6341C3.35034 25.5905 4.64754 26.1278 6.00015 26.1278H7.92015V30.2558C7.91979 30.5423 8.0008 30.823 8.15376 31.0652C8.30673 31.3073 8.52534 31.5011 8.78415 31.6238C9.0462 31.7389 9.33483 31.7795 9.61843 31.7414C9.90204 31.7033 10.1697 31.588 10.3921 31.4078L16.7041 26.1278H18.0842V29.3078C18.0842 30.6637 18.6228 31.9639 19.5815 32.9227C20.5401 33.8813 21.8403 34.4198 23.1961 34.4198H31.2962L37.6082 39.7118C37.8824 39.9365 38.2257 40.0595 38.5802 40.0598C38.8002 40.0595 39.0174 40.0103 39.2161 39.9158C39.4731 39.794 39.6905 39.6022 39.8433 39.3622C39.9962 39.1223 40.0782 38.8442 40.0802 38.5598V34.4198H42.0001C43.3527 34.4198 44.6499 33.8825 45.6065 32.9261C46.5629 31.9697 47.1002 30.6725 47.1002 29.3198V13.3958C47.097 12.0443 46.5586 10.7489 45.6028 9.79316C44.6472 8.83741 43.3518 8.29907 42.0001 8.29591ZM16.1521 23.1278C15.8024 23.1338 15.4646 23.2562 15.1922 23.4758L10.9201 27.0758V24.6758C10.9201 24.278 10.7621 23.8966 10.4808 23.6152C10.1995 23.3339 9.81796 23.1758 9.42015 23.1758H6.00015C5.44318 23.1758 4.90905 22.9546 4.51522 22.5608C4.1214 22.1669 3.90015 21.6328 3.90015 21.0758V5.10391C3.9033 4.54792 4.12555 4.01561 4.5187 3.62246C4.91185 3.22931 5.44416 3.00706 6.00015 3.00391H24.8162C25.3731 3.00391 25.9073 3.22516 26.301 3.61898C26.6949 4.01281 26.9161 4.54694 26.9161 5.10391V21.0158C26.9161 21.2932 26.8616 21.5678 26.7554 21.8242C26.6493 22.0804 26.4936 22.3132 26.2976 22.5092C26.1015 22.7054 25.8685 22.861 25.6124 22.9672C25.3561 23.0732 25.0815 23.1278 24.8041 23.1278H16.1521ZM44.1002 29.3198C44.1002 29.8768 43.8789 30.4109 43.485 30.8048C43.0913 31.1986 42.5571 31.4198 42.0001 31.4198H38.5802C38.1824 31.4198 37.8008 31.5779 37.5195 31.8592C37.2383 32.1406 37.0802 32.522 37.0802 32.9198V35.3198L32.8082 31.7198C32.5409 31.4899 32.2006 31.3624 31.8481 31.3598H23.1961C22.636 31.3598 22.0988 31.1374 21.7028 30.7412C21.3066 30.3452 21.0842 29.8081 21.0842 29.2478V26.1278H24.8162C26.1687 26.1278 27.4659 25.5905 28.4224 24.6341C29.3788 23.6777 29.9161 22.3805 29.9161 21.0278V11.3078H42.0001C42.5562 11.311 43.0884 11.5333 43.4815 11.9264C43.8747 12.3196 44.097 12.8519 44.1002 13.4078V29.3198Z" fill="#1D1C1D"/>
<path d="M9.16803 11.2718C8.854 11.2789 8.54905 11.3785 8.29137 11.5582C8.03368 11.7377 7.83474 11.9894 7.71943 12.2816C7.60414 12.5738 7.57762 12.8935 7.64322 13.2007C7.7088 13.5079 7.86357 13.7888 8.08815 14.0084C8.31271 14.228 8.5971 14.3765 8.90568 14.4353C9.21424 14.494 9.53328 14.4604 9.82282 14.3386C10.1124 14.2168 10.3595 14.0123 10.5334 13.7507C10.7072 13.489 10.8 13.1819 10.8 12.8678C10.8017 12.6547 10.7604 12.4435 10.6786 12.2467C10.5967 12.0499 10.476 11.8717 10.3236 11.7226C10.1712 11.5736 9.99033 11.4569 9.79176 11.3794C9.5932 11.302 9.38106 11.2654 9.16803 11.2718Z" fill="#1D1C1D"/>
<path d="M15.444 11.2718C15.1288 11.2742 14.8215 11.3699 14.5606 11.5466C14.2997 11.7235 14.097 11.9735 13.9781 12.2654C13.8591 12.5572 13.8292 12.8777 13.8921 13.1866C13.9551 13.4953 14.108 13.7786 14.3317 14.0006C14.5554 14.2226 14.8398 14.3734 15.1489 14.434C15.4582 14.4946 15.7785 14.4623 16.0695 14.3413C16.3603 14.2201 16.609 14.0155 16.7838 13.7533C16.9587 13.4911 17.052 13.183 17.052 12.8678C17.052 12.6572 17.0103 12.4487 16.9293 12.2543C16.8484 12.0599 16.7298 11.8834 16.5802 11.735C16.4308 11.5867 16.2534 11.4694 16.0584 11.3899C15.8634 11.3104 15.6546 11.2703 15.444 11.2718Z" fill="#1D1C1D"/>
<path d="M21.7322 14.4639C22.0478 14.4639 22.3565 14.3703 22.6188 14.1949C22.8813 14.0196 23.0859 13.7703 23.2067 13.4787C23.3274 13.1871 23.3591 12.8661 23.2976 12.5565C23.2359 12.2469 23.084 11.9625 22.8608 11.7393C22.6376 11.5161 22.3532 11.3641 22.0436 11.3025C21.734 11.241 21.413 11.2726 21.1214 11.3934C20.8298 11.5141 20.5805 11.7187 20.4051 11.9812C20.2298 12.2436 20.1362 12.5522 20.1362 12.8678C20.1345 13.0778 20.1747 13.2862 20.2544 13.4805C20.334 13.6749 20.4516 13.8514 20.6001 13.9999C20.7486 14.1484 20.9252 14.266 21.1196 14.3457C21.3138 14.4253 21.5222 14.4655 21.7322 14.4639Z" fill="#1D1C1D"/>
</svg>
